<?xml version="1.0" encoding="UTF-8" standalone="no"?>
<!-- Created with Inkscape (http://www.inkscape.org/) -->

<svg
   width="1728"
   height="1117"
   viewBox="0 0 457.19999 295.53958"
   version="1.1"
   id="svg1"
   xmlns="http://www.w3.org/2000/svg"
   xmlns:svg="http://www.w3.org/2000/svg">
  <defs
     id="defs1" />
  <g
     id="g2"
     style="display:inline">
    <path
       style="font-variation-settings:normal;display:inline;opacity:1;vector-effect:none;fill:#ff0000;fill-opacity:1;stroke:none;stroke-width:0.264583px;stroke-linecap:butt;stroke-linejoin:miter;stroke-miterlimit:4;stroke-dasharray:none;stroke-dashoffset:0;stroke-opacity:1;-inkscape-stroke:none;stop-color:#000000;stop-opacity:1"
       d="m 0,0 h 457.19999 v 83.655325 c 0,0 -5.00418,13.789154 -10.80632,13.651955 c -4.87979,-0.115389 -7.04126,-7.251714 -8.53562,-11.898493 c -4.9251,-15.314866 4.16371,-32.722799 0,-48.261952 c -1.26908,-4.736259 -7.35502,-12.739234 -7.35502,-12.739234 c 0,0 -6.55094,8.614491 -7.91699,13.712647 c -4.78207,17.846966 4.78208,37.582647 0,55.429612 c -1.74266,6.5037 -3.36656,17.49317 -10.09968,17.49317 c -6.20807,0 -7.70534,-10.13251 -9.31211,-16.129052 c -4.59835,-17.161279 6.79902,-36.885736 0,-53.299989 c -1.45247,-3.506576 -4.25597,-8.051447 -8.05146,-8.051445 c -5.17213,3e-6 -8.99245,6.193321 -10.97174,10.971746 c -5.61341,13.551983 5.61342,30.453698 0,44.00568 c -1.80362,4.354326 -5.28488,9.997969 -9.99797,9.997969 c -4.38186,0 -7.61847,-5.247021 -9.29534,-9.295336 c -5.72407,-13.819135 3.87134,-30.425121 0,-44.873174 c -1.39108,-5.191589 -2.73334,-13.262414 -8.06209,-13.963955 c -3.86553,-0.508905 -6.77873,4.668686 -8.27077,8.270783 c -10.95662,26.451656 7.41028,58.237705 0,85.893183 c -1.45719,5.43829 -2.86325,13.89262 -8.44521,14.6275 c -6.2088,0.8174 -10.88799,-7.49882 -13.28449,-13.2845 c -9.56028,-23.08056 6.46589,-50.815688 0,-74.946655 c -1.54533,-5.767255 -3.03645,-14.733002 -8.95607,-15.512331 c -7.10357,-0.935197 -12.45709,8.579502 -15.19896,15.198971 c -5.41346,13.069261 5.41346,29.368934 0,42.438195 c -2.13833,5.162377 -6.26561,11.85334 -11.85333,11.85334 c -4.99628,0 -8.68672,-5.982747 -10.59871,-10.598707 c -5.77319,-13.937701 3.90456,-30.686163 0,-45.258177 c -1.84156,-6.872814 -3.55763,-18.485989 -10.67289,-18.48599 c -5.23044,-10e-7 -5.23045,9.059395 -7.84567,13.589093 c -2.06032,3.568575 -2.20072,9.639227 -6.18095,10.705726 c -4.90683,1.314782 -8.2912,-8.934668 -13.19803,-7.619886 c -6.15412,1.648991 -7.90782,10.398775 -9.55681,16.552892 c -7.03397,26.251154 10.40026,56.423129 0,81.531579 c -2.23769,5.40227 -6.55678,12.40415 -12.40415,12.40415 c -7.77183,0 -13.5124,-9.30631 -16.48655,-16.48655 c -7.3238,-17.68121 2.49801,-38.43974 0,-57.414019 c -1.07687,-8.179653 1.21627,-20.750117 -6.40595,-23.907345 c -5.51211,-2.283191 -11.28202,4.730613 -15.50081,8.949399 c -4.82035,4.820351 -3.46683,16.821303 -10.22552,17.711099 c -4.31869,0.568565 -7.57342,-5.215996 -9.24037,-9.240372 c -2.07491,-5.009287 1.40332,-11.028776 0,-16.266038 c -1.90562,-7.111873 -3.74437,-18.167961 -11.04413,-19.128993 c -4.91221,-0.646705 -7.49412,6.579544 -10.51029,10.510292 c -4.10279,5.346858 -8.36502,10.999986 -10.10935,17.509908 c -3.50829,13.093115 3.50829,27.571854 0,40.664969 c -1.42571,5.32081 -2.80138,13.59252 -8.26276,14.31152 c -5.43405,0.7154 -9.52936,-6.5631 -11.62682,-11.62683 c -4.00112,-9.65957 1.36471,-21.000326 0,-31.366318 c -1.27803,-9.707598 1.85516,-25.839002 -7.60257,-28.373196 c -4.48952,-1.202964 -8.081001,5.565575 -9.859673,9.859668 c -4.433252,10.702813 0,23.169284 0,34.753926 c 0,13.88853 3.594618,28.25031 0,41.6656 c -1.67553,6.25316 -3.29226,15.9743 -9.710624,16.81929 c -6.807168,0.89618 -11.937318,-8.22152 -14.564786,-14.56479 c -5.3948,-13.0242 1.840066,-28.31519 0,-42.291886 c -1.496004,-11.36328 -4.513171,-22.623503 -8.899233,-33.212394 c -2.687167,-6.487395 -3.510953,-18.243446 -10.532859,-18.243447 c -3.619056,0 -4.043633,6.059011 -5.428586,9.402583 c -3.746697,9.045325 -5.06798,18.913967 -7.601971,28.37095 c -3.016539,11.257878 -7.528334,22.218334 -9.049618,33.773634 c -1.650717,12.53844 4.839658,26.25594 0,37.93991 c -1.928213,4.65512 -5.821643,11.99272 -10.688618,10.68862 c -6.49481,-1.74028 -4.343191,-12.81803 -5.220839,-19.48443 c -3.3828073,-25.69496 3.382806,-52.055092 0,-77.750056 c -1.104001,-8.38572 1.818383,-23.405633 -6.567337,-24.509634 c -3.4306279,-0.451651 -5.190346,8.989943 -5.190346,8.989943 z"
       id="path2" />
  </g>
</svg>
