<?xml version="1.0" encoding="UTF-8" standalone="no"?>
<!-- Created with Inkscape (http://www.inkscape.org/) -->

<svg
   width="1728"
   height="1117"
   viewBox="0 0 457.19999 295.53958"
   version="1.1"
   id="svg1"
   xmlns="http://www.w3.org/2000/svg"
   xmlns:svg="http://www.w3.org/2000/svg">
  <defs
     id="defs1" />
  <g
     id="g3"
     style="display:inline">
    <path
       style="font-variation-settings:normal;display:inline;vector-effect:none;fill:#ff0000;fill-opacity:1;stroke:none;stroke-width:0.264583px;stroke-linecap:butt;stroke-linejoin:miter;stroke-miterlimit:4;stroke-dasharray:none;stroke-dashoffset:0;stroke-opacity:1;-inkscape-stroke:none;stop-color:#000000"
       d="m 6.4216651e-6,0 h 457.1999835783349 v 166.42597 c 0,0 -5.00418,13.78915 -10.80632,13.65195 c -4.87979,-0.11539 -7.04126,-7.25171 -8.53562,-11.89849 c -4.9251,-15.31487 4.16371,-32.7228 0,-48.26196 c -1.26908,-4.73626 -7.35502,-12.73923 -7.35502,-12.73923 c 0,0 -6.55094,8.61449 -7.91699,13.71265 c -4.78207,17.84697 4.78208,37.58265 0,55.42961 c -1.74266,6.5037 -3.36656,17.49317 -10.09968,17.49317 c -6.20807,0 -7.70534,-10.13251 -9.31211,-16.12905 c -4.59835,-17.16128 6.79902,-36.88574 0,-53.29999 c -1.45247,-3.50658 -4.25597,-8.05145 -8.05146,-8.05145 c -5.17213,1e-5 -8.99245,6.19332 -10.97174,10.97175 c -5.61341,13.55199 5.61342,30.4537 0,44.00568 c -1.80362,4.35433 -5.28488,9.99797 -9.99797,9.99797 c -4.38186,0 -7.61847,-5.24702 -9.29534,-9.29533 c -5.72407,-13.81914 3.87134,-30.42513 0,-44.87318 c -1.39108,-5.19159 -2.73334,-13.26242 -8.06209,-13.96396 c -3.86553,-0.5089 -6.77873,4.66869 -8.27077,8.27079 c -10.95662,26.45166 7.41028,58.2377 0,85.89318 c -1.45719,5.43829 -2.86325,13.89262 -8.44521,14.6275 c -6.2088,0.8174 -10.88799,-7.49882 -13.28449,-13.2845 c -9.56028,-23.08056 6.46589,-50.81569 0,-74.94666 c -1.54533,-5.76725 -3.03645,-14.733 -8.95607,-15.51233 c -7.10357,-0.93519 -12.45709,8.5795 -15.19896,15.19897 c -5.41346,13.06927 5.41346,29.36894 0,42.4382 c -2.13833,5.16238 -6.26561,11.85334 -11.85333,11.85334 c -4.99628,0 -8.68672,-5.98274 -10.59871,-10.5987 c -5.77319,-13.93771 3.90456,-30.68617 0,-45.25819 c -1.84156,-6.87281 -3.55763,-18.48598 -10.67289,-18.48599 c -5.23044,0 -5.23045,9.0594 -7.84567,13.5891 c -2.06032,3.56857 -2.20072,9.63923 -6.18095,10.70573 c -4.90683,1.31478 -8.2912,-8.93467 -13.19803,-7.61989 c -6.15412,1.64899 -7.90782,10.39878 -9.55681,16.55289 c -7.03397,26.25116 10.40026,56.42313 0,81.53158 c -2.23769,5.40227 -6.55678,12.40415 -12.40415,12.40415 c -7.77183,0 -13.5124,-9.30631 -16.48655,-16.48655 c -7.3238,-17.68121 2.49801,-38.43974 0,-57.41402 c -1.07687,-8.17965 1.21627,-20.75011 -6.40595,-23.90734 c -5.51211,-2.28319 -11.28202,4.73061 -15.50081,8.9494 c -4.82035,4.82035 -3.46683,16.8213 -10.22552,17.7111 c -4.31869,0.56856 -7.57342,-5.216 -9.24037,-9.24038 c -2.07491,-5.00928 1.40332,-11.02877 0,-16.26603 c -1.90562,-7.11188 -3.74437,-18.16797 -11.04412,-19.129 c -4.91221,-0.64671 -7.49412,6.57954 -10.51029,10.51029 c -4.10279,5.34686 -8.36502,10.99999 -10.10935,17.50991 c -3.50829,13.09312 3.50829,27.57186 0,40.66497 c -1.42571,5.32081 -2.80138,13.59252 -8.26276,14.31152 c -5.43405,0.7154 -9.52936,-6.5631 -11.62682,-11.62683 c -4.00112,-9.65957 1.36471,-21.00032 0,-31.36632 c -1.27803,-9.70759 1.85516,-25.839 -7.60257,-28.37319 c -4.489524,-1.20297 -8.081005,5.56557 -9.859677,9.85967 c -4.433252,10.70281 0,23.16928 0,34.75392 c 0,13.88853 3.594618,28.25031 0,41.6656 c -1.67553,6.25316 -3.29226,15.9743 -9.710624,16.81929 c -6.807168,0.89618 -11.937318,-8.22152 -14.564786,-14.56479 c -5.3948,-13.0242 1.840066,-28.31519 0,-42.29188 c -1.496004,-11.36328 -4.513171,-22.62351 -8.899233,-33.2124 c -2.687167,-6.48739 -3.510953,-18.24345 -10.532859,-18.24345 c -3.619056,0 -4.043633,6.05902 -5.428586,9.40259 c -3.746697,9.04532 -5.06798,18.91397 -7.601971,28.37095 c -3.016539,11.25788 -7.528334,22.21833 -9.049618,33.77363 c -1.650717,12.53844 4.839658,26.25594 0,37.93991 c -1.928213,4.65512 -5.821643,11.99272 -10.688618,10.68862 c -6.49481,-1.74028 -4.343191,-12.81803 -5.220839,-19.48443 c -3.3828066,-25.69496 3.382806,-52.05509 0,-77.75005 c -1.104001,-8.38572 1.818383,-23.40564 -6.5673366,-24.50964 c -3.430628,-0.45165 -5.1903459783353,8.98995 -5.1903459783353,8.98995 z"
       id="path2-7" />
  </g>
</svg>
